<svg width="58" height="60" viewBox="0 0 58 60" fill="none" xmlns="http://www.w3.org/2000/svg">
<path fill-rule="evenodd" clip-rule="evenodd" d="M18.0404 2.665C20.8752 2.53 21.779 2.5 29 2.5C36.221 2.5 37.1248 2.5325 39.9572 2.665C42.7895 2.7975 44.7228 3.265 46.4145 3.9425C48.1859 4.635 49.793 5.7175 51.1222 7.1175C52.4755 8.49 53.5195 10.15 54.1865 11.985C54.8438 13.735 55.2933 15.735 55.4238 18.66C55.5543 21.5975 55.5833 22.5325 55.5833 30C55.5833 37.47 55.5519 38.405 55.4238 41.3375C55.2957 44.2625 54.8438 46.2625 54.1865 48.0125C53.5195 49.8477 52.4737 51.5105 51.1222 52.885C49.793 54.285 48.1859 55.365 46.4145 56.055C44.7228 56.735 42.7895 57.2 39.962 57.335C37.1248 57.47 36.221 57.5 29 57.5C21.779 57.5 20.8752 57.4675 18.0404 57.335C15.2129 57.2025 13.2796 56.735 11.5879 56.055C9.81388 55.3649 8.20656 54.2831 6.87782 52.885C5.52541 51.5117 4.47883 49.8497 3.81107 48.015C3.15616 46.265 2.70666 44.265 2.57616 41.34C2.44566 38.4025 2.41666 37.4675 2.41666 30C2.41666 22.53 2.44807 21.595 2.57616 18.665C2.70424 15.735 3.15616 13.735 3.81107 11.985C4.47982 10.1502 5.52719 8.48828 6.88024 7.115C8.20709 5.71625 9.8128 4.63361 11.5855 3.9425C13.2772 3.265 15.2105 2.8 18.038 2.665H18.0404ZM39.7421 7.615C36.9387 7.4825 36.0977 7.455 29 7.455C21.9022 7.455 21.0612 7.4825 18.2579 7.615C15.6648 7.7375 14.2583 8.185 13.3207 8.5625C12.0809 9.0625 11.194 9.655 10.2636 10.6175C9.3816 11.5051 8.70284 12.5857 8.27707 13.78C7.91216 14.75 7.47957 16.205 7.36116 18.8875C7.23307 21.7875 7.20649 22.6575 7.20649 30C7.20649 37.3425 7.23307 38.2125 7.36116 41.1125C7.47957 43.795 7.91216 45.25 8.27707 46.22C8.70241 47.4125 9.38149 48.495 10.2636 49.3825C11.1215 50.295 12.1679 50.9975 13.3207 51.4375C14.2583 51.815 15.6648 52.2625 18.2579 52.385C21.0612 52.5175 21.8998 52.545 29 52.545C36.1002 52.545 36.9387 52.5175 39.7421 52.385C42.3352 52.2625 43.7417 51.815 44.6793 51.4375C45.9191 50.9375 46.806 50.345 47.7364 49.3825C48.6185 48.495 49.2976 47.4125 49.7229 46.22C50.0878 45.25 50.5204 43.795 50.6388 41.1125C50.7669 38.2125 50.7935 37.3425 50.7935 30C50.7935 22.6575 50.7669 21.7875 50.6388 18.8875C50.5204 16.205 50.0878 14.75 49.7229 13.78C49.2396 12.4975 48.6668 11.58 47.7364 10.6175C46.8783 9.70518 45.8338 9.00303 44.6793 8.5625C43.7417 8.185 42.3352 7.7375 39.7421 7.615ZM25.6046 38.4775C27.5008 39.2941 29.6123 39.4043 31.5784 38.7893C33.5445 38.1743 35.2432 36.8723 36.3844 35.1056C37.5256 33.3389 38.0385 31.2172 37.8354 29.1028C37.6324 26.9883 36.7261 25.0124 35.2712 23.5125C34.3438 22.5537 33.2224 21.8195 31.9878 21.3629C30.7532 20.9062 29.436 20.7384 28.1312 20.8715C26.8263 21.0047 25.5663 21.4354 24.4417 22.1328C23.3171 22.8302 22.356 23.7769 21.6275 24.9046C20.899 26.0324 20.4213 27.3132 20.2287 28.6549C20.0362 29.9966 20.1336 31.3657 20.514 32.6638C20.8943 33.9619 21.5482 35.1565 22.4284 36.1618C23.3086 37.1671 24.3934 37.958 25.6046 38.4775ZM19.3382 20.005C20.607 18.6924 22.1133 17.6513 23.771 16.9409C25.4288 16.2305 27.2056 15.8649 29 15.8649C30.7944 15.8649 32.5712 16.2305 34.2289 16.9409C35.8867 17.6513 37.393 18.6924 38.6618 20.005C39.9306 21.3176 40.9371 22.8758 41.6238 24.5907C42.3105 26.3057 42.6639 28.1438 42.6639 30C42.6639 31.8562 42.3105 33.6943 41.6238 35.4093C40.9371 37.1242 39.9306 38.6824 38.6618 39.995C36.0993 42.6458 32.6239 44.1351 29 44.1351C25.3761 44.1351 21.9006 42.6458 19.3382 39.995C16.7757 37.3442 15.3361 33.7489 15.3361 30C15.3361 26.2511 16.7757 22.6558 19.3382 20.005ZM45.6943 17.97C46.0087 17.6632 46.2605 17.2942 46.4346 16.8849C46.6087 16.4757 46.7016 16.0344 46.7079 15.5873C46.7142 15.1402 46.6337 14.6964 46.4712 14.282C46.3087 13.8677 46.0675 13.4913 45.7619 13.1751C45.4563 12.8589 45.0924 12.6094 44.6919 12.4413C44.2913 12.2732 43.8623 12.1899 43.4301 12.1965C42.9979 12.203 42.5713 12.2991 42.1757 12.4792C41.7801 12.6593 41.4234 12.9197 41.1268 13.245C40.55 13.8776 40.2342 14.7178 40.2464 15.5873C40.2587 16.4568 40.598 17.2872 41.1924 17.9021C41.7869 18.517 42.5895 18.8681 43.4301 18.8807C44.2706 18.8934 45.0828 18.5667 45.6943 17.97Z" fill="#00B3F9"/>
</svg>
