<svg width="60" height="60" viewBox="0 0 60 60" fill="none" xmlns="http://www.w3.org/2000/svg">
<path d="M59.1075 12.3427C57.02 13.2677 54.7775 13.8927 52.42 14.1752C54.8525 12.7197 56.6724 10.4289 57.54 7.73019C55.2546 9.08767 52.7534 10.0432 50.145 10.5552C48.391 8.68236 46.0677 7.44101 43.5358 7.02388C41.004 6.60675 38.4053 7.03717 36.1431 8.24832C33.881 9.45948 32.082 11.3836 31.0254 13.722C29.9689 16.0603 29.7139 18.6821 30.3 21.1802C25.6692 20.9477 21.1391 19.7441 17.0036 17.6475C12.8681 15.5508 9.21963 12.6081 6.29503 9.01019C5.29503 10.7352 4.72003 12.7352 4.72003 14.8652C4.71891 16.7827 5.19111 18.6708 6.09473 20.362C6.99834 22.0532 8.30543 23.4953 9.90003 24.5602C8.05072 24.5013 6.24221 24.0017 4.62503 23.1027V23.2527C4.62484 25.942 5.55511 28.5486 7.25799 30.6302C8.96086 32.7117 11.3315 34.14 13.9675 34.6727C12.252 35.137 10.4534 35.2054 8.70753 34.8727C9.45127 37.1867 10.9 39.2103 12.8509 40.66C14.8019 42.1098 17.1573 42.9131 19.5875 42.9577C15.4621 46.1962 10.3672 47.9529 5.12253 47.9452C4.19348 47.9454 3.26522 47.8912 2.34253 47.7827C7.66622 51.2056 13.8634 53.0222 20.1925 53.0152C41.6175 53.0152 53.33 35.2702 53.33 19.8802C53.33 19.3802 53.3175 18.8752 53.295 18.3752C55.5733 16.7276 57.5398 14.6874 59.1025 12.3502L59.1075 12.3427Z" fill="#00B3F9"/>
</svg>
